<?xml version="1.0" standalone="no"?>
<!DOCTYPE svg PUBLIC "-//W3C//DTD SVG 20010904//EN"
 "http://www.w3.org/TR/2001/REC-SVG-20010904/DTD/svg10.dtd">
<svg version="1.0" xmlns="http://www.w3.org/2000/svg"
 width="523.000000pt" height="573.000000pt" viewBox="0 0 523.000000 573.000000"
 preserveAspectRatio="xMidYMid meet">
<metadata>
Created by potrace 1.16, written by Peter Selinger 2001-2019
</metadata>
<g transform="translate(0.000000,573.000000) scale(0.100000,-0.100000)"
fill="#000000" stroke="none">
<path d="M435 5321 c-28 -12 -51 -40 -70 -84 -13 -32 -15 -299 -15 -2434 0
-2263 1 -2400 18 -2433 22 -44 75 -80 120 -80 45 0 110 37 130 75 16 28 17
207 22 2199 l5 2169 188 -283 c104 -155 520 -783 924 -1394 404 -611 750
-1126 769 -1144 30 -28 40 -32 89 -32 45 0 60 5 78 23 12 12 441 656 952 1430
l930 1408 5 -2185 5 -2185 30 -31 c56 -58 145 -64 206 -13 63 54 59 -131 59
2490 0 2315 -1 2400 -19 2433 -26 49 -62 72 -118 77 -36 3 -56 -1 -79 -15 -38
-24 4 38 -1123 -1640 -508 -755 -924 -1372 -926 -1370 -2 3 -575 855 -1568
2333 -225 336 -422 623 -436 639 -44 49 -121 69 -176 47z"/>
<path d="M1275 3356 c-17 -7 -36 -25 -43 -40 -9 -21 -12 -356 -12 -1487 0
-1603 -4 -1503 60 -1529 27 -11 37 -11 66 3 19 9 39 28 44 43 6 16 10 506 10
1334 0 1044 3 1308 13 1304 6 -2 39 -46 72 -97 62 -96 383 -583 810 -1227 136
-206 253 -378 259 -383 20 -13 56 -19 80 -13 17 4 55 54 137 178 62 95 262
398 444 673 182 275 384 582 450 682 66 100 126 185 133 187 9 4 12 -263 12
-1319 l0 -1324 27 -20 c14 -12 36 -24 49 -27 26 -7 79 19 94 45 7 13 10 502
10 1494 0 1462 0 1475 -20 1500 -24 30 -66 42 -102 28 -27 -10 -67 -68 -713
-1031 -479 -713 -535 -795 -547 -795 -6 0 -169 236 -363 525 -695 1034 -848
1259 -869 1278 -29 27 -65 33 -101 18z"/>
<path d="M1881 1864 c-21 -26 -21 -33 -21 -789 0 -756 0 -763 21 -789 27 -34
86 -37 115 -5 18 20 19 49 24 646 l5 625 262 -396 c274 -413 277 -417 336
-402 18 4 91 107 283 398 l259 392 5 -614 c5 -635 6 -649 46 -664 30 -12 72
-6 95 13 l24 19 0 777 0 777 -24 19 c-32 26 -82 25 -108 -3 -11 -13 -149 -215
-307 -450 -158 -236 -291 -428 -296 -428 -5 0 -82 109 -171 243 -312 466 -430
637 -449 647 -35 19 -77 12 -99 -16z"/>
</g>
</svg>
