<?xml version="1.0" standalone="no"?>
<!DOCTYPE svg PUBLIC "-//W3C//DTD SVG 20010904//EN"
 "http://www.w3.org/TR/2001/REC-SVG-20010904/DTD/svg10.dtd">
<svg version="1.0" xmlns="http://www.w3.org/2000/svg"
 width="512.000000pt" height="563.000000pt" viewBox="0 0 512.000000 563.000000"
 preserveAspectRatio="xMidYMid meet">
<metadata>
Created by potrace 1.16, written by Peter Selinger 2001-2019
</metadata>
<g transform="translate(0.000000,563.000000) scale(0.100000,-0.100000)"
fill="#000000" stroke="none">
<path d="M0 2815 l0 -2815 2560 0 2560 0 0 2815 0 2815 -2560 0 -2560 0 0
-2815z m503 2471 c18 -7 44 -26 58 -42 14 -16 211 -303 436 -639 993 -1478
1566 -2330 1568 -2333 2 -2 418 615 926 1370 1127 1678 1085 1616 1123 1640
23 14 43 18 79 15 56 -5 92 -28 119 -77 18 -34 18 -113 16 -2447 l-3 -2412
-21 -28 c-65 -88 -172 -96 -244 -18 l-25 27 -5 2184 -5 2185 -930 -1408 c-511
-774 -940 -1418 -952 -1430 -18 -18 -33 -23 -78 -23 -49 0 -59 4 -89 32 -19
18 -365 533 -769 1144 -404 611 -820 1239 -924 1394 l-188 283 -5 -2169 c-5
-1992 -6 -2171 -22 -2199 -20 -38 -85 -75 -130 -75 -45 0 -98 36 -120 80 -17
33 -18 170 -18 2433 0 2583 -3 2434 48 2490 34 38 98 48 155 23z m823 -1978
c21 -19 174 -244 869 -1278 194 -289 357 -525 363 -525 12 0 70 85 547 795
639 952 686 1021 713 1031 36 14 78 2 102 -28 20 -25 20 -38 20 -1500 0 -992
-3 -1481 -10 -1494 -15 -26 -68 -52 -94 -45 -13 3 -35 15 -49 27 l-27 20 0
1324 c0 1056 -3 1323 -12 1319 -7 -2 -67 -87 -133 -187 -66 -100 -268 -407
-450 -682 -182 -275 -382 -578 -444 -673 -82 -124 -120 -174 -137 -178 -24 -6
-60 0 -80 13 -6 5 -117 168 -246 363 -600 908 -787 1191 -833 1262 -28 43 -56
80 -62 82 -10 4 -13 -260 -13 -1304 0 -828 -4 -1318 -10 -1334 -5 -15 -25 -34
-44 -43 -29 -14 -39 -14 -66 -3 -64 26 -60 -74 -60 1529 0 1131 3 1466 12
1487 24 52 99 64 144 22z m604 -1458 c19 -10 137 -181 449 -647 89 -134 166
-243 171 -243 5 0 138 192 296 428 158 235 296 437 307 450 26 28 76 29 108 3
l24 -19 0 -777 0 -777 -24 -19 c-23 -19 -65 -25 -95 -13 -40 15 -41 29 -46
664 l-5 614 -259 -392 c-192 -291 -265 -394 -283 -398 -59 -15 -62 -11 -336
402 l-262 396 -5 -625 c-5 -597 -6 -626 -24 -646 -29 -32 -88 -29 -115 5 -21
26 -21 33 -21 789 0 756 0 763 21 789 22 28 64 35 99 16z"/>
</g>
</svg>
