<?xml version="1.0" standalone="no"?>
<!DOCTYPE svg PUBLIC "-//W3C//DTD SVG 20010904//EN"
 "http://www.w3.org/TR/2001/REC-SVG-20010904/DTD/svg10.dtd">
<svg version="1.0" xmlns="http://www.w3.org/2000/svg"
 width="500.000000pt" height="500.000000pt" viewBox="0 0 500.000000 500.000000"
 preserveAspectRatio="xMidYMid meet">

<g transform="translate(0.000000,500.000000) scale(0.100000,-0.100000)"
fill="#000000" stroke="none">
<path d="M2783 4910 c-225 -41 -400 -204 -463 -433 -20 -72 -21 -97 -18 -395
3 -317 3 -317 30 -392 89 -244 297 -389 558 -390 160 0 287 49 400 156 119
113 154 199 110 271 -25 41 -68 63 -124 63 -49 0 -61 -9 -135 -106 -28 -36
-57 -61 -98 -80 -51 -26 -69 -29 -153 -29 -76 0 -104 4 -141 21 -60 28 -118
86 -149 149 -25 50 -25 51 -25 360 l0 310 28 57 c57 115 156 172 300 170 103
-1 166 -29 227 -102 96 -112 105 -120 147 -120 124 0 181 123 107 233 -78 113
-201 205 -322 241 -68 20 -211 28 -279 16z"/>
<path d="M3616 4876 c-36 -37 -52 -81 -41 -118 9 -29 541 -1341 563 -1387 44
-95 188 -96 236 -2 37 70 559 1370 563 1402 10 72 -49 139 -124 139 -59 0 -99
-22 -122 -68 -10 -20 -110 -263 -221 -539 -112 -277 -206 -503 -210 -503 -3 0
-103 237 -220 526 -243 596 -236 584 -335 584 -49 0 -58 -4 -89 -34z"/>
<path d="M1830 3868 c-51 -15 -88 -44 -113 -91 l-22 -42 -3 -1019 -2 -1020
-228 226 c-125 124 -241 233 -259 242 -113 57 -263 -38 -263 -167 0 -27 7 -63
15 -81 8 -17 198 -214 423 -438 345 -344 413 -408 447 -417 50 -14 60 -14 110
0 34 9 102 73 447 417 225 224 415 421 423 438 69 147 -89 313 -238 250 -18
-7 -136 -115 -262 -239 l-230 -225 -5 1022 c-5 1091 -3 1038 -54 1094 -43 48
-122 69 -186 50z"/>
<path d="M285 1403 c-93 -49 -105 -83 -105 -310 0 -220 11 -308 54 -436 92
-270 304 -485 574 -581 155 -55 174 -56 1073 -56 773 0 835 1 926 19 301 58
548 246 678 514 68 142 86 228 92 452 7 220 0 291 -30 336 -37 54 -71 73 -140
77 -74 4 -116 -14 -161 -71 l-31 -39 -6 -226 c-5 -196 -9 -235 -27 -289 -70
-199 -233 -345 -437 -388 -104 -22 -1626 -22 -1730 0 -211 45 -386 208 -440
411 -11 40 -18 120 -21 249 -3 105 -7 205 -10 223 -6 40 -58 100 -101 118 -43
18 -121 17 -158 -3z"/>
</g>
</svg>
